<svg id="Слой_1" data-name="Слой 1" xmlns="http://www.w3.org/2000/svg" viewBox="0 0 359.01 346.56"><defs><style>.cls-1{fill:#ed1c24;}</style></defs><title>1</title><g id="Слой_1-2" data-name="Слой_1"><path class="cls-1" d="M359,59.69V13.3H207.87V0L171.36,36.49l33.9,33.89a77.36,77.36,0,0,0-67.28-.5l33.38-33.39L134.87,0V12.44A132.83,132.83,0,0,0,46.41,95V13.3H0V271.68H46.41V185a132.55,132.55,0,0,0,257.23-45V59.69ZM148.07,74a85.13,85.13,0,0,0-19.91,24.42,79.14,79.14,0,0,1-8.35-5.85A69.94,69.94,0,0,1,148.07,74ZM115,181.38a69.29,69.29,0,0,1-13.58-37.58h16.19a87.51,87.51,0,0,0,7.19,30.77A91.2,91.2,0,0,0,115,181.38Zm13.21.11a85.31,85.31,0,0,0,20,24.43,70.06,70.06,0,0,1-28.28-18.61,76.63,76.63,0,0,1,8.32-5.82Zm-26.79-45.36a69.58,69.58,0,0,1,13.55-37.62,90.82,90.82,0,0,0,9.79,6.83,87.66,87.66,0,0,0-7.12,30.79Zm65.91-25.85a82.8,82.8,0,0,1-32.45-8.19,75.46,75.46,0,0,1,32.45-31.51Zm0,25.85h-42A79.34,79.34,0,0,1,131.51,109a90.28,90.28,0,0,0,35.77,9Zm0,25.85a90,90,0,0,0-35.73,8.92,79.14,79.14,0,0,1-6.28-27.1h42Zm0,47.37a75.46,75.46,0,0,1-32.42-31.54,82.45,82.45,0,0,1,32.42-8.15Zm40.1-107.22a83.11,83.11,0,0,1-32.44,8.15V70.58A75.58,75.58,0,0,1,207.38,102.13Zm33.48,41.67a69.44,69.44,0,0,1-13.59,37.58,89.3,89.3,0,0,0-9.78-6.83,86.36,86.36,0,0,0,7.12-30.75Zm-16.25-7.67a86.87,86.87,0,0,0-7.1-30.79,80.22,80.22,0,0,0,9.77-6.82,69.43,69.43,0,0,1,13.58,37.61Zm-2.24,51.16a69.94,69.94,0,0,1-28.29,18.63,84.67,84.67,0,0,0,20-24.46A80.3,80.3,0,0,1,222.37,187.29Zm-47.43,22.06V169.66a82.5,82.5,0,0,1,32.43,8.15A75.87,75.87,0,0,1,174.94,209.35Zm0-47.37V143.8h42a78.69,78.69,0,0,1-6.28,27.08,89.9,89.9,0,0,0-35.73-8.9Zm0-25.85V118A90.15,90.15,0,0,0,210.69,109a78.43,78.43,0,0,1,6.26,27.1Zm47.45-43.51a78.89,78.89,0,0,1-8.31,5.83A85.38,85.38,0,0,0,194.14,74a69.66,69.66,0,0,1,28.25,18.6ZM257.25,140A86.14,86.14,0,1,1,134.87,61.82v9.64a77.52,77.52,0,1,0,73,.27v-12h49.38V140ZM359,286.65H0v59.91H359ZM179.49,333.76a6.13,6.13,0,0,1-6.13,6.12H12.81a6.13,6.13,0,0,1-6.12-6.12V299.45a6.1,6.1,0,0,1,6.12-6.1H173.36a6.12,6.12,0,0,1,6.13,6.1Zm44.23-25.16h-8.64v22.72h-7.71V308.6H198.7v-6.48h25Zm29.48,22.74h-7.74c-.74-1.76-.68-4.17-.89-6.1-.34-3.43-1.68-4.76-5.2-4.76H234.7v10.86h-7.64V302.12h15.22c5.5,0,9.89,2.71,9.89,8.46a7.23,7.23,0,0,1-4.5,7.13,5.45,5.45,0,0,1,3.68,3.76c.44,1.57.53,1.92.91,6.21a6.53,6.53,0,0,0,.94,3.66Zm30.17,0h-7.88l-1.9-5.33H263.51l-1.94,5.33h-7.79l11-29.25h7.71Zm27.48,0h-7.43l-10.65-18.76.2,18.76h-7.34V302.12h7.63l10.54,18.49-.33-18.49h7.38Zm29-9c0,5.88-4.9,9.6-12.52,9.6-8.14,0-12.94-3.84-13.06-10.45h7.67c0,3.44,2.31,4.63,5.89,4.63,2.82,0,4.33-1,4.33-2.93,0-1.55-.94-2.35-3.84-3.12-2-.59-5.35-1.6-7.23-2.3-3.91-1.4-5.71-3.69-5.71-7.27,0-5.54,4.56-9,11.77-9s11.36,3.31,11.49,9.38h-7.26c-.16-2.33-1.79-3.56-4.75-3.56-2.38,0-3.86.94-3.86,2.51,0,1.21.53,1.75,2.2,2.22a63.82,63.82,0,0,1,10.32,3.23,7.45,7.45,0,0,1,4.56,7.08Zm-74.58-1.88h6.63l-3.27-10.2Zm-20.55-9.05c0-2.31-1.51-3.4-4.7-3.4H234.7v7h5.36C242.59,315,244.68,314.52,244.68,311.45ZM153,308.6h8.63v-6.48h-25v6.48h8.66v22.72H153V308.6Zm-32-.12h13.9v-6.37H113.31v29.21H121V320.11h12v-6H121v-5.64Zm-17.83,22.85h7.89l-10.91-29.26H92.45l-11,29.26h7.8L91.21,326h10.1ZM99.6,320.5H93l3.36-10.2,3.29,10.2ZM73.16,331.33h7.75c-.81-1.09-.81-2.28-.94-3.65-.38-4.3-.45-4.64-.89-6.21a5.51,5.51,0,0,0-3.69-3.76,7.24,7.24,0,0,0,4.48-7.13c0-5.76-4.37-8.46-9.87-8.46H54.79v29.21h7.62V320.47h4.68c3.55,0,4.85,1.33,5.22,4.76.21,1.93.1,4.34.85,6.1Zm-.79-19.88c0,3.07-2.09,3.59-4.57,3.59H62.41v-7h5.28C70.86,308.05,72.37,309.14,72.37,311.45ZM52.55,331.34,40.37,313.58l10.84-11.46H41.75L32,313.28V302.12H24.53v29.22h7.56v-9l3.11-3.25,7.88,12.27Z"/></g></svg>